<svg width="80" height="77" viewBox="0 0 80 77" fill="none" xmlns="http://www.w3.org/2000/svg">
<path d="M42.1112 60.5474C38.4312 60.5474 35.2312 59.6674 32.5112 57.9074C29.7912 56.1474 27.6912 53.6474 26.2112 50.4074C24.7312 47.1674 23.9912 43.3474 23.9912 38.9474C23.9912 34.5474 24.7312 30.7274 26.2112 27.4874C27.7312 24.2474 29.8712 21.7474 32.6312 19.9874C35.3912 18.2274 38.6312 17.3474 42.3512 17.3474C45.3112 17.3474 47.9512 17.9274 50.2712 19.0874C52.5912 20.2474 54.3112 21.8474 55.4312 23.8874L52.3112 26.9474C50.1112 23.5874 46.8112 21.9074 42.4112 21.9074C38.3712 21.9074 35.2112 23.4074 32.9312 26.4074C30.6912 29.3674 29.5712 33.5474 29.5712 38.9474C29.5712 44.3074 30.6712 48.4874 32.8712 51.4874C35.1112 54.4874 38.1912 55.9874 42.1112 55.9874C44.5112 55.9874 46.5312 55.5874 48.1712 54.7874C49.8512 53.9474 51.2312 52.6674 52.3112 50.9474L55.4312 54.0074C54.2712 56.0874 52.5312 57.7074 50.2112 58.8674C47.8912 59.9874 45.1912 60.5474 42.1112 60.5474Z" fill="#EE6633"/>
<path d="M35 11H15V68H35" stroke="#EE6633" stroke-width="3"/>
<path d="M48 68H68V11H48" stroke="#EE6633" stroke-width="3"/>
</svg>
