<svg width="80" height="77" viewBox="0 0 80 77" fill="none" xmlns="http://www.w3.org/2000/svg">
<path d="M41.695 53.6C37.4417 53.6 34.0867 52.335 31.63 49.805C29.21 47.2383 28 43.7367 28 39.3C28 34.8267 29.21 31.325 31.63 28.795C34.0867 26.265 37.4417 25 41.695 25C44.2617 25 46.4983 25.4767 48.405 26.43C50.3117 27.3833 51.7783 28.74 52.805 30.5L48.57 34.185C47.8733 32.975 46.9383 32.04 45.765 31.38C44.6283 30.72 43.3817 30.39 42.025 30.39C39.825 30.39 38.1017 31.1783 36.855 32.755C35.6083 34.3317 34.985 36.5133 34.985 39.3C34.985 42.0867 35.6083 44.2683 36.855 45.845C38.1017 47.4217 39.825 48.21 42.025 48.21C43.3817 48.21 44.6283 47.88 45.765 47.22C46.9017 46.5233 47.8367 45.5883 48.57 44.415L52.805 48.1C51.7783 49.86 50.3117 51.2167 48.405 52.17C46.4983 53.1233 44.2617 53.6 41.695 53.6Z" fill="#EE6633"/>
<path d="M35 15H15V64H35" stroke="#EE6633" stroke-width="5"/>
<path d="M48 64H68V15H48" stroke="#EE6633" stroke-width="5"/>
</svg>
